<svg id="visual" viewBox="0 0 900 600" width="900" height="600" xmlns="http://www.w3.org/2000/svg" xmlns:xlink="http://www.w3.org/1999/xlink" version="1.1"><path d="M0 63L6.5 63.8C13 64.7 26 66.3 39 70C52 73.7 65 79.3 78 77.8C91 76.3 104 67.7 117.2 70.7C130.3 73.7 143.7 88.3 156.8 88.3C170 88.3 183 73.7 196 74.3C209 75 222 91 235 99.3C248 107.7 261 108.3 274 103.2C287 98 300 87 313 81.8C326 76.7 339 77.3 352 74.8C365 72.3 378 66.7 391 70.8C404 75 417 89 430.2 96.5C443.3 104 456.7 105 469.8 98C483 91 496 76 509 75.7C522 75.3 535 89.7 548 95C561 100.3 574 96.7 587 92.2C600 87.7 613 82.3 626 84C639 85.7 652 94.3 665 96.5C678 98.7 691 94.3 704 90C717 85.7 730 81.3 743.2 79.2C756.3 77 769.7 77 782.8 73.7C796 70.3 809 63.7 822 68.7C835 73.7 848 90.3 861 99C874 107.7 887 108.3 893.5 108.7L900 109L900 0L893.5 0C887 0 874 0 861 0C848 0 835 0 822 0C809 0 796 0 782.8 0C769.7 0 756.3 0 743.2 0C730 0 717 0 704 0C691 0 678 0 665 0C652 0 639 0 626 0C613 0 600 0 587 0C574 0 561 0 548 0C535 0 522 0 509 0C496 0 483 0 469.8 0C456.7 0 443.3 0 430.2 0C417 0 404 0 391 0C378 0 365 0 352 0C339 0 326 0 313 0C300 0 287 0 274 0C261 0 248 0 235 0C222 0 209 0 196 0C183 0 170 0 156.8 0C143.7 0 130.3 0 117.2 0C104 0 91 0 78 0C65 0 52 0 39 0C26 0 13 0 6.5 0L0 0Z" fill="#e1e1e1"></path><path d="M0 54L6.5 54.8C13 55.7 26 57.3 39 58.5C52 59.7 65 60.3 78 60C91 59.7 104 58.3 117.2 53.7C130.3 49 143.7 41 156.8 37.3C170 33.7 183 34.3 196 38.5C209 42.7 222 50.3 235 50.8C248 51.3 261 44.7 274 42.3C287 40 300 42 313 46.5C326 51 339 58 352 57C365 56 378 47 391 44.5C404 42 417 46 430.2 46.5C443.3 47 456.7 44 469.8 43.2C483 42.3 496 43.7 509 46.8C522 50 535 55 548 53.8C561 52.7 574 45.3 587 43.7C600 42 613 46 626 53.2C639 60.3 652 70.7 665 73.2C678 75.7 691 70.3 704 64.5C717 58.7 730 52.3 743.2 50.8C756.3 49.3 769.7 52.7 782.8 57C796 61.3 809 66.7 822 68.7C835 70.7 848 69.3 861 66.3C874 63.3 887 58.7 893.5 56.3L900 54L900 0L893.5 0C887 0 874 0 861 0C848 0 835 0 822 0C809 0 796 0 782.8 0C769.7 0 756.3 0 743.2 0C730 0 717 0 704 0C691 0 678 0 665 0C652 0 639 0 626 0C613 0 600 0 587 0C574 0 561 0 548 0C535 0 522 0 509 0C496 0 483 0 469.8 0C456.7 0 443.3 0 430.2 0C417 0 404 0 391 0C378 0 365 0 352 0C339 0 326 0 313 0C300 0 287 0 274 0C261 0 248 0 235 0C222 0 209 0 196 0C183 0 170 0 156.8 0C143.7 0 130.3 0 117.2 0C104 0 91 0 78 0C65 0 52 0 39 0C26 0 13 0 6.5 0L0 0Z" fill="#b2dec1"></path><path d="M0 30L6.5 31.7C13 33.3 26 36.7 39 39.8C52 43 65 46 78 43.2C91 40.3 104 31.7 117.2 25C130.3 18.3 143.7 13.7 156.8 14.3C170 15 183 21 196 21C209 21 222 15 235 11.7C248 8.3 261 7.7 274 14.2C287 20.7 300 34.3 313 36C326 37.7 339 27.3 352 27.7C365 28 378 39 391 44.3C404 49.7 417 49.3 430.2 49C443.3 48.7 456.7 48.3 469.8 47.2C483 46 496 44 509 40.5C522 37 535 32 548 27.2C561 22.3 574 17.7 587 14.8C600 12 613 11 626 17.2C639 23.3 652 36.7 665 39C678 41.3 691 32.7 704 27.2C717 21.7 730 19.3 743.2 16.2C756.3 13 769.7 9 782.8 13.2C796 17.3 809 29.7 822 30.8C835 32 848 22 861 23C874 24 887 36 893.5 42L900 48L900 0L893.5 0C887 0 874 0 861 0C848 0 835 0 822 0C809 0 796 0 782.8 0C769.7 0 756.3 0 743.2 0C730 0 717 0 704 0C691 0 678 0 665 0C652 0 639 0 626 0C613 0 600 0 587 0C574 0 561 0 548 0C535 0 522 0 509 0C496 0 483 0 469.8 0C456.7 0 443.3 0 430.2 0C417 0 404 0 391 0C378 0 365 0 352 0C339 0 326 0 313 0C300 0 287 0 274 0C261 0 248 0 235 0C222 0 209 0 196 0C183 0 170 0 156.8 0C143.7 0 130.3 0 117.2 0C104 0 91 0 78 0C65 0 52 0 39 0C26 0 13 0 6.5 0L0 0Z" fill="#7cd9a1"></path></svg>